#!OML:ASF Y:\EmotionMaleHayes\Project 1\Capture day 1\Session 1\Male1.ASF
:FULLY-SPECIFIED
:DEGREES
449
root 46.0057 17.1746 -1.22485 797.085 86.3717 799.705
lowerback 6.40916 2.3634 -6.95573
upperback 3.0165 2.829 -1.4322
thorax -0.720071 1.4097 2.21269
lowerneck -20.4168 -0.30373 1.1822
upperneck 22.3319 -0.905412 0.952661
head 10.5506 -0.129906 0.0212768
rclavicle -4.87022e-015 8.34896e-015
rhumerus -41.3994 13.3535 -90.9938
rradius 44.147
rwrist -6.45476
rhand -12.4899 -29.8361
rfingers 7.12502
rthumb 13.5849 -59.3729
lclavicle -4.87022e-015 8.34896e-015
lhumerus -37.4363 -18.9248 90.5328
lradius 47.5243
lwrist 8.69994
lhand -19.8327 -21.3239
lfingers 7.12502
lthumb 6.50137 8.55626
rfemur 5.43954 -1.01717 11.2401
rtibia 8.49349
rfoot -15.1088 -2.77373
rtoes -4.33042
lfemur 11.8228 -0.922473 -20.6557
ltibia 0.424837
lfoot -12.3486 10.3951
ltoes -0.0852563
450
root 46.0093 17.1767 -1.22339 797.416 86.5019 799.926
lowerback 6.32016 2.29005 -6.81594
upperback 2.96477 2.74182 -1.41452
thorax -0.712032 1.36672 2.16265
lowerneck -20.2389 -0.186367 1.27768
upperneck 22.2053 -0.766428 0.950771
head 10.4709 -0.0603876 0.0253148
rclavicle 5.61567e-015 7.55382e-015
rhumerus -41.4557 13.3018 -90.9627
rradius 43.8899
rwrist -6.25813
rhand -12.2603 -29.878
rfingers 7.12502
rthumb 13.8061 -59.3999
lclavicle 5.61567e-015 7.55382e-015
lhumerus -37.4543 -18.9781 90.5684
lradius 47.9173
lwrist 8.8945
lhand -19.8264 -21.6066
lfingers 7.12502
lthumb 6.50737 8.27346
rfemur 5.31972 -1.29201 11.3296
rtibia 8.6543
rfoot -15.16 -2.47816
rtoes -3.24426
lfemur 11.7305 -0.915337 -20.5273
ltibia 0.434839
lfoot -12.3543 10.3602
ltoes -0.176808
451
root 46.0114 17.1776 -1.21784 796.536 86.676 799.042
lowerback 6.31528 2.27328 -6.66317
upperback 2.97259 2.72808 -1.36065
thorax -0.696596 1.35952 2.13493
lowerneck -20.2798 -0.166484 1.26941
upperneck 22.2467 -0.742102 0.971261
head 10.4939 -0.0466657 0.0376794
rclavicle -9.93923e-015 -1.19271e-015
rhumerus -41.4907 13.2263 -90.8968
rradius 43.6791
rwrist -6.03304
rhand -12.2465 -29.7514
rfingers 7.12502
rthumb 13.8194 -59.2724
lclavicle -9.93923e-015 -1.19271e-015
lhumerus -37.403 -19.1714 90.6689
lradius 48.3135
lwrist 9.08819
lhand -19.9109 -21.676
lfingers 7.12502
lthumb 6.42582 8.20656
rfemur 5.27444 -1.42919 11.5592
rtibia 8.62967
rfoot -14.9915 -2.56264
rtoes -5.09622
lfemur 11.7486 -0.882862 -20.2728
ltibia 0.457516
lfoot -12.2951 10.3412
ltoes -0.245022
452
root 46.0152 17.1779 -1.21221 796.359 86.4616 798.895
lowerback 6.34564 2.30324 -6.93335
upperback 2.98103 2.75189 -1.38053
thorax -0.716495 1.37057 2.26146
lowerneck -20.3395 -0.198377 1.11243
upperneck 22.3144 -0.765377 1.07898
head 10.5309 -0.0561489 0.0990541
rclavicle 1.98785e-015 -2.10712e-014
rhumerus -41.539 13.1228 -90.7954
rradius 43.457
rwrist -5.96217
rhand -12.3216 -29.6998
rfingers 7.12502
rthumb 13.7471 -59.2256
lclavicle 1.98785e-015 -2.10712e-014
lhumerus -37.3599 -19.3958 90.8557
lradius 48.6109
lwrist 9.22993
lhand -19.9482 -21.5241
lfingers 7.12502
lthumb 6.38986 8.35954
rfemur 5.29828 -1.34322 11.3204
rtibia 8.77089
rfoot -15.1565 -2.32951
rtoes -3.31908
lfemur 11.797 -0.891635 -20.5156
ltibia 0.453481
lfoot -12.292 10.4168
ltoes -0.180704
453
root 46.0187 17.1764 -1.20879 797.794 86.028 800.338
lowerback 6.20304 2.3135 -7.37046
upperback 3.11254 2.76793 -1.50405
thorax -0.513 1.3698 2.38416
lowerneck -20.4269 -0.218468 1.00482
upperneck 22.2226 -0.786818 1.16872
head 10.5147 -0.0662895 0.145413
rclavicle -2.32578e-014 4.53229e-014
rhumerus -41.3084 13.0013 -90.6768
rradius 43.174
rwrist -5.91153
rhand -12.222 -29.8218
rfingers 7.12502
rthumb 13.8431 -59.3411
lclavicle -2.32578e-014 4.53229e-014
lhumerus -37.1189 -19.6826 90.9152
lradius 48.8595
lwrist 9.2924
lhand -19.7976 -21.3366
lfingers 7.12502
lthumb 6.53517 8.54254
rfemur 5.31989 -1.55134 10.7044
rtibia 8.79152
rfoot -15.1806 -2.10705
rtoes -3.53472
lfemur 11.8023 -0.901257 -21.0732
ltibia 0.460264
lfoot -12.4536 10.4397
ltoes 0.0122862
454
root 46.0142 17.1776 -1.19796 796.468 86.1249 798.983
lowerback 6.49275 2.34141 -7.31281
upperback 2.91903 2.7653 -1.49735
thorax -0.873191 1.38236 2.34266
lowerneck -20.3048 -0.200204 1.07476
upperneck 22.3071 -0.761727 1.10628
head 10.5219 -0.0543651 0.115661
rclavicle 1.72446e-014 2.70347e-014
rhumerus -41.5141 12.8827 -90.7302
rradius 42.9393
rwrist -5.70802
rhand -12.0808 -29.9109
rfingers 7.12502
rthumb 13.9791 -59.4209
lclavicle 1.72446e-014 2.70347e-014
lhumerus -37.4395 -19.8919 91.0544
lradius 49.177
lwrist 9.29342
lhand -19.7491 -21.3293
lfingers 7.12502
lthumb 6.58202 8.54845
rfemur 5.25311 -1.23084 10.9835
rtibia 8.76215
rfoot -15.2483 -2.41877
rtoes -4.05181
lfemur 11.7463 -0.904546 -20.8395
ltibia 0.473494
lfoot -12.5774 10.4532
ltoes 0.203479
455
root 46.0165 17.1766 -1.18261 793.613 86.2021 796.152
lowerback 6.71024 2.38794 -7.33417
upperback 2.77033 2.79336 -1.45938
thorax -1.15426 1.40621 2.3786
lowerneck -19.8516 -0.0544083 1.11699
upperneck 22.0785 -0.558604 1.1099
head 10.3535 0.0395788 0.139275
rclavicle 5.76476e-015 2.42517e-014
rhumerus -41.7157 12.81 -90.792
rradius 42.7376
rwrist -5.56929
rhand -12.2286 -29.8584
rfingers 7.12502
rthumb 13.8367 -59.3782
lclavicle 5.76476e-015 2.42517e-014
lhumerus -37.714 -20.0758 91.2182
lradius 49.4302
lwrist 9.50586
lhand -19.882 -21.4626
lfingers 7.12502
lthumb 6.45375 8.41907
rfemur 5.26942 -0.613595 11.3586
rtibia 8.68
rfoot -15.3608 -2.87137
rtoes -4.55289
lfemur 11.8208 -0.893826 -20.5664
ltibia 0.411576
lfoot -12.5478 10.5664
ltoes 0.162901
